# xmcd
#
# Track frame offsets:
#	150
#	13348
#	28622
#	41882
#	57880
#	72589
#	90211
#	106162
#	113149
#	129840
#	145645
#	157342
#	174153
#	186113
#	196274
#	214234
#	234269
#	249227
#
# Disc length: 3489 seconds
#
# Revision: 0
# Processed by: cddbd v1.5.2PL0 Copyright (c) Steve Scherf et al.
# Submitted via: EasyCDDAExtractor 16.0.6.1
#
DISCID=ef0d9f12
DTITLE=Γλυκερία - Εκατόν σαράντα μεγ. επιτυχίες-Γλυκερία 6
DYEAR=2010
DGENRE=Ποικίλη
TTITLE0=Γλυκερία - Τα πεντοχίλιαρα [Γιάννης Καραλής]
TTITLE1=Γλυκερία - Ο μπουφετζής [Γ. Μπάτης, διασκ. Γ. Παπαϊωάννου-Δ. Σέμσης]
TTITLE2=Γλυκερία - Με μπουνάτσες και μποφόρια [Γιώργος Ζήκας]
TTITLE3=Γλυκερία - Στη μαγεμένη Αραπιά [Γιώργος Μητσάκης]
TTITLE4=Γλυκερία - Τραγούδι αισθηματικό [Γιώργος Κόρος-Χάρης Χατζάκης]
TTITLE5=Γλυκερία - Ο Μεμέτης [παραδοσ., διασκ. Στέλιος Φωτιάδης]
TTITLE6=Γλυκερία - Η μπολσεβίκα [Παναγιώτης Τούντας]
TTITLE7=Γλυκερία - Γύρνα πάλι, γύρνα [Στράτος Ατταλίδης-Κώστας Βίρβος]
TTITLE8=Γλυκερία-χορωδία - Τι είν' αυτό [Πέτρος Βαγιόπουλος-Μαν. Ρασούλης]
TTITLE9=Γλυκερία - Πίκρες [Χρ. Νικολόπουλος-Λ. Παπαδόπουλος]
TTITLE10=Γλυκερία - Απόψε κέρνα με να πιώ [Μιχάλης Γενίτσαρης]
TTITLE11=Γλυκερία - Για ποιαν αγάπη [Γιάννης Σπανός-Πάνος Φαλάρας]
TTITLE12=Γλυκερία - Καμμιά φορά συμβαίνει [Στέλιος Φωτιάδης-Πάνος Φαλάρας]
TTITLE13=Γλυκερία - Κοιμήσου, μωρό μου [Στέλιος Φωτιάδης-Κυριάκος Ντούμος]
TTITLE14=Γλυκερία - Κάποτε θά 'ρθουν [Μ. Θεοδωράκης-Λ. Παπαδόπουλος]
TTITLE15=Γλυκερία - Ήταν τ' Απρίλη δεκατρείς [Τάσος Ιωαννίδης-Δημ. Κεσίσογλου]
TTITLE16=Γλυκερία - Βροχή στα μάτια [Στέλιος Φωτιάδης-Πάνος Φαλάρας]
TTITLE17=Γλυκερία-Βαγιόπουλος Πέτρος - Δυό-δυό ποτέ [Πέτρος Βαγιόπουλος-Μαν. Ρ
TTITLE17=ασούλης]
EXTD=
EXTT0=
EXTT1=
EXTT2=
EXTT3=
EXTT4=
EXTT5=
EXTT6=
EXTT7=
EXTT8=
EXTT9=
EXTT10=
EXTT11=
EXTT12=
EXTT13=
EXTT14=
EXTT15=
EXTT16=
EXTT17=
PLAYORDER=
